<?xml version="1.0" encoding="utf-8"?>
<!-- Generator: Adobe Illustrator 18.1.0, SVG Export Plug-In . SVG Version: 6.00 Build 0)  -->
<svg version="1.1" id="Calque_1" xmlns="http://www.w3.org/2000/svg" xmlns:xlink="http://www.w3.org/1999/xlink" x="0px" y="0px"
	 viewBox="0 336 612 120" enable-background="new 0 336 612 120" xml:space="preserve">
<g id="Group">
	<path id="imagecharts" fill="#FFFFFF" d="M152.9,419.8h-11v-41.3h11V419.8z M140.6,364.9c0-1.9,0.7-3.5,2-4.9
		c1.3-1.4,2.9-2.1,4.8-2.1s3.5,0.7,4.8,2c1.3,1.3,2,3,2,5c0,1.8-0.7,3.4-2,4.8c-1.3,1.3-2.9,2-4.8,2s-3.5-0.7-4.8-2
		C141.2,368.4,140.6,366.8,140.6,364.9z M175.7,419.8h-11v-41.3h10.5v5c1.1-1.9,2.7-3.4,5-4.5c2.3-1.1,4.6-1.7,7-1.7
		c5.9,0,9.9,2.3,12.1,6.9c2.9-4.6,7.2-6.9,12.9-6.9c4.1,0,7.6,1.3,10.5,4c2.8,2.6,4.3,6.6,4.3,11.8v26.8h-10.7v-24.5
		c0-2.4-0.6-4.2-1.8-5.7c-1.2-1.4-3-2.1-5.4-2.1c-2.3,0-4.1,0.8-5.5,2.4c-1.4,1.6-2.1,3.5-2.1,5.8v24.2h-10.9v-24.5
		c0-2.4-0.6-4.2-1.8-5.7c-1.2-1.4-3-2.1-5.4-2.1c-2.3,0-4.2,0.8-5.6,2.3c-1.4,1.5-2.1,3.5-2.1,5.8V419.8L175.7,419.8z M235.6,408.5
		c0-3.5,1.1-6.4,3.4-8.5c2.3-2.1,5.2-3.5,8.8-4l10-1.5c2-0.3,3.1-1.3,3.1-2.9c0-1.6-0.6-2.9-1.8-3.9c-1.2-1-2.9-1.5-5.1-1.5
		c-2.3,0-4.2,0.6-5.5,1.9c-1.4,1.3-2.1,2.9-2.3,4.8l-9.8-2.1c0.4-3.6,2.1-6.7,5.2-9.5c3.1-2.7,7.2-4.1,12.3-4.1
		c6.1,0,10.5,1.5,13.4,4.4c2.9,2.9,4.3,6.7,4.3,11.3v20.3c0,2.5,0.2,4.7,0.5,6.6H262c-0.3-1.2-0.4-2.9-0.4-5
		c-2.6,4.1-6.6,6.1-12,6.1c-4.2,0-7.6-1.2-10.1-3.7C236.9,414.8,235.6,411.9,235.6,408.5z M251.9,412.6c2.6,0,4.7-0.7,6.4-2.2
		c1.7-1.5,2.5-3.9,2.5-7.4v-1.8l-9.2,1.4c-3.4,0.5-5.1,2.2-5.1,5.2c0,1.3,0.5,2.5,1.4,3.4C248.9,412.2,250.2,412.6,251.9,412.6
		L251.9,412.6z M279.6,422l9.9-2.7c0.4,2.3,1.4,4.2,3.1,5.6c1.7,1.5,3.8,2.2,6.4,2.2c7.2,0,10.9-3.8,10.9-11.5v-3
		c-0.9,1.5-2.4,2.8-4.3,3.8c-1.9,1-4.3,1.5-7,1.5c-5.4,0-9.9-1.9-13.5-5.7c-3.6-3.8-5.4-8.6-5.4-14.4c0-5.6,1.8-10.4,5.4-14.3
		c3.6-3.9,8.1-5.9,13.6-5.9c3,0,5.5,0.5,7.5,1.6c2,1.1,3.4,2.4,4.1,4v-4.9h10.6v36.9c0,6.2-1.8,11.4-5.3,15.5
		c-3.5,4.1-8.9,6.2-16.1,6.2c-5.4,0-9.8-1.5-13.5-4.4C282.4,429.7,280.3,426.2,279.6,422z M300.5,408.3c2.8,0,5.1-1,6.9-2.9
		c1.8-1.9,2.7-4.5,2.7-7.6c0-3.1-0.9-5.7-2.8-7.6c-1.8-1.9-4.1-2.9-6.8-2.9c-2.8,0-5.2,1-7,2.9c-1.9,1.9-2.8,4.4-2.8,7.6
		c0,3.2,0.9,5.7,2.7,7.6C295.3,407.4,297.6,408.3,300.5,408.3z M340,394.4h18.2c-0.1-2.3-0.9-4.2-2.4-5.8c-1.5-1.6-3.7-2.4-6.7-2.4
		c-2.7,0-4.8,0.8-6.5,2.5C341,390.4,340.1,392.3,340,394.4z M359.3,405.2l9.2,2.8c-1.1,3.8-3.3,6.9-6.5,9.4
		c-3.2,2.5-7.2,3.7-12.1,3.7c-5.9,0-10.8-2-14.9-6c-4.1-4-6.1-9.4-6.1-16.1c0-6.4,2-11.6,6-15.7c4-4.1,8.7-6.1,14.1-6.1
		c6.3,0,11.2,1.9,14.8,5.7c3.6,3.8,5.3,9,5.3,15.7c0,0.4,0,1,0,1.5c0,0.6,0,1,0,1.3l-0.1,0.6h-29.2c0.1,2.7,1.2,4.9,3.1,6.7
		c2,1.8,4.4,2.7,7.1,2.7C354.8,411.5,357.8,409.4,359.3,405.2L359.3,405.2z M396.1,387.5c-2.9,0-5.4,1-7.4,3.1c-2,2.1-3,4.9-3,8.5
		c0,3.6,1,6.4,3,8.5c2,2.1,4.5,3.2,7.4,3.2c2.6,0,4.7-0.7,6.2-2.1c1.5-1.4,2.6-3,3.1-4.9l9.7,3.3c-1,3.8-3.1,7.1-6.5,9.8
		c-3.3,2.7-7.5,4.1-12.6,4.1c-6.1,0-11.2-2.1-15.3-6.3s-6.2-9.4-6.2-15.7c0-6.3,2-11.6,6.1-15.7c4.1-4.1,9.1-6.2,15-6.2
		c5.2,0,9.4,1.4,12.8,4.1c3.3,2.7,5.4,6,6.4,9.9l-9.9,3.4C403.8,389.8,400.8,387.5,396.1,387.5L396.1,387.5z M434.4,395.5v24.3h-11
		v-60.8h11v22.9c2.5-3,6.2-4.5,11-4.5c5,0,8.7,1.5,11.3,4.6c2.6,3.1,3.9,7,3.9,11.8v26h-11v-24.1c0-2.5-0.6-4.5-1.9-6
		c-1.2-1.5-3.1-2.3-5.7-2.3c-2.3,0-4.1,0.8-5.4,2.3C435.2,391.2,434.5,393.1,434.4,395.5L434.4,395.5z M469.3,408.5
		c0-3.5,1.1-6.4,3.4-8.5c2.3-2.1,5.2-3.5,8.8-4l10-1.5c2-0.3,3.1-1.3,3.1-2.9c0-1.6-0.6-2.9-1.8-3.9c-1.2-1-2.9-1.5-5.1-1.5
		c-2.3,0-4.2,0.6-5.5,1.9c-1.4,1.3-2.1,2.9-2.3,4.8l-9.8-2.1c0.4-3.6,2.1-6.7,5.2-9.5c3.1-2.7,7.2-4.1,12.3-4.1
		c6.1,0,10.5,1.5,13.4,4.4c2.9,2.9,4.3,6.7,4.3,11.3v20.3c0,2.5,0.2,4.7,0.5,6.6h-10.1c-0.3-1.2-0.4-2.9-0.4-5
		c-2.6,4.1-6.6,6.1-12,6.1c-4.2,0-7.6-1.2-10.1-3.7C470.5,414.8,469.3,411.9,469.3,408.5L469.3,408.5z M485.6,412.6
		c2.6,0,4.7-0.7,6.4-2.2c1.7-1.5,2.5-3.9,2.5-7.4v-1.8l-9.2,1.4c-3.4,0.5-5.1,2.2-5.1,5.2c0,1.3,0.5,2.5,1.4,3.4
		C482.6,412.2,483.9,412.6,485.6,412.6z M541.3,378.3v11.3c-1.1-0.2-2.2-0.3-3.3-0.3c-3.1,0-5.7,0.9-7.6,2.7
		c-1.9,1.8-2.9,4.8-2.9,8.9v18.9h-11v-41.3h10.7v6.1c2-4.3,5.9-6.5,11.6-6.5C539.3,378.1,540.2,378.2,541.3,378.3L541.3,378.3z
		 M564.2,366.1v12.4h8.2v9.9h-8.2v17.3c0,1.7,0.4,3,1.2,3.7c0.8,0.7,2,1.1,3.6,1.1c1.5,0,2.6-0.1,3.4-0.3v9.2c-1.6,0.7-3.7,1-6.2,1
		c-4,0-7.1-1.1-9.4-3.4c-2.3-2.3-3.5-5.4-3.5-9.4v-19.2h-7.4v-9.9h2.1c2,0,3.6-0.6,4.7-1.8s1.6-2.8,1.6-4.7v-5.8H564.2L564.2,366.1z
		 M579.2,408.3l9.4-2.1c0.1,1.8,0.8,3.3,2.1,4.5c1.3,1.2,3.1,1.8,5.3,1.8c1.7,0,3-0.4,4-1.2c0.9-0.8,1.4-1.8,1.4-2.9
		c0-2.1-1.5-3.4-4.4-4l-5.4-1.3c-3.8-0.8-6.7-2.4-8.6-4.5c-1.9-2.2-2.9-4.8-2.9-7.8c0-3.8,1.4-6.9,4.3-9.6s6.5-3.9,10.9-3.9
		c2.8,0,5.2,0.4,7.3,1.2c2.1,0.8,3.7,1.8,4.9,3.1c1.2,1.3,2,2.5,2.7,3.8c0.6,1.3,1,2.5,1.2,3.8l-9.2,2.1c-0.2-1.5-0.9-2.7-1.9-3.9
		c-1.1-1.1-2.7-1.7-4.8-1.7c-1.4,0-2.7,0.4-3.7,1.2c-1,0.8-1.5,1.8-1.5,2.9c0,2,1.2,3.2,3.7,3.7l5.8,1.3c3.9,0.8,6.9,2.4,9,4.6
		c2.1,2.2,3.1,4.9,3.1,8.1c0,3.7-1.4,6.9-4.1,9.6c-2.8,2.7-6.7,4-11.7,4c-2.9,0-5.4-0.4-7.7-1.3c-2.3-0.9-4-2-5.3-3.4
		c-1.2-1.4-2.2-2.7-2.8-4.1C579.8,410.9,579.4,409.5,579.2,408.3L579.2,408.3z"/>
	<g id="Shape">
		<path id="Combined-Shape" fill="#FFFFFF" d="M11.7,340.4h87.8c6.5,0,11.7,5.2,11.7,11.7v87.8c0,6.5-5.2,11.7-11.7,11.7H11.7
			c-6.5,0-11.7-5.2-11.7-11.7v-87.8C0,345.6,5.2,340.4,11.7,340.4z M11.7,352.1v76.1h87.8v-76.1H11.7z"/>
		<g id="_1">
			<path id="Background" fill="#FFFFFF" d="M38.1,372.6c0-3.2-2.6-5.9-5.9-5.9s-5.9,2.6-5.9,5.9v35.1c0,3.2,2.6,5.9,5.9,5.9
				s5.9-2.6,5.9-5.9V372.6z"/>
		</g>
		<g id="_2">
			<path id="Background1" fill="#FFFFFF" d="M61.5,372.6c0-3.2-2.6-5.9-5.9-5.9c-3.2,0-5.9,2.6-5.9,5.9v35.1c0,3.2,2.6,5.9,5.9,5.9
				c3.2,0,5.9-2.6,5.9-5.9V372.6z"/>
		</g>
		<path id="_3" fill="#FFFFFF" d="M84.9,372.6c0-3.2-2.6-5.9-5.9-5.9c-3.2,0-5.9,2.6-5.9,5.9v35.1c0,3.2,2.6,5.9,5.9,5.9
			c3.2,0,5.9-2.6,5.9-5.9V372.6z"/>
	</g>
</g>
</svg>
