<?xml version="1.0" encoding="UTF-8" standalone="no"?><!DOCTYPE svg PUBLIC "-//W3C//DTD SVG 1.1//EN" "http://www.w3.org/Graphics/SVG/1.1/DTD/svg11.dtd"><svg width="100%" height="100%" viewBox="0 0 209 38" version="1.1" xmlns="http://www.w3.org/2000/svg" xmlns:xlink="http://www.w3.org/1999/xlink" xml:space="preserve" style="fill-rule:evenodd;clip-rule:evenodd;stroke-linejoin:round;stroke-miterlimit:1.41421;"><g id="Group"><path id="imagecharts" d="M52.215,27.118l-3.762,0l0,-14.117l3.762,0l0,14.117Zm-4.215,-18.736c0,-0.651 0.226,-1.21 0.679,-1.679c0.453,-0.469 1,-0.703 1.641,-0.703c0.641,0 1.188,0.23 1.641,0.689c0.452,0.459 0.679,1.023 0.679,1.693c0,0.631 -0.227,1.176 -0.679,1.635c-0.453,0.459 -1,0.689 -1.641,0.689c-0.641,0 -1.188,-0.23 -1.641,-0.689c-0.453,-0.459 -0.679,-1.004 -0.679,-1.635Zm11.995,18.736l-3.763,0l0,-14.117l3.593,0l0,1.722c0.359,-0.651 0.924,-1.167 1.698,-1.55c0.773,-0.382 1.565,-0.574 2.376,-0.574c2.018,0 3.395,0.785 4.131,2.353c0.999,-1.568 2.47,-2.353 4.413,-2.353c1.414,0 2.607,0.45 3.579,1.349c0.971,0.899 1.456,2.238 1.456,4.017l0,9.153l-3.649,0l0,-8.378c0,-0.804 -0.203,-1.449 -0.608,-1.937c-0.406,-0.488 -1.023,-0.732 -1.853,-0.732c-0.773,0 -1.396,0.268 -1.867,0.804c-0.472,0.535 -0.708,1.195 -0.708,1.979l0,8.264l-3.734,0l0,-8.378c0,-0.804 -0.207,-1.449 -0.622,-1.937c-0.415,-0.488 -1.028,-0.732 -1.839,-0.732c-0.792,0 -1.424,0.263 -1.896,0.789c-0.471,0.526 -0.707,1.191 -0.707,1.994l0,8.264Zm20.454,-3.845c0,-1.205 0.387,-2.171 1.16,-2.898c0.773,-0.727 1.773,-1.186 2.999,-1.377l3.423,-0.517c0.698,-0.095 1.046,-0.43 1.046,-1.004c0,-0.535 -0.202,-0.975 -0.608,-1.32c-0.405,-0.344 -0.985,-0.516 -1.74,-0.516c-0.792,0 -1.419,0.22 -1.881,0.66c-0.462,0.44 -0.721,0.985 -0.778,1.635l-3.338,-0.717c0.132,-1.224 0.726,-2.305 1.782,-3.242c1.056,-0.938 2.452,-1.406 4.187,-1.406c2.075,0 3.602,0.502 4.583,1.506c0.981,1.004 1.471,2.291 1.471,3.859l0,6.944c0,0.842 0.057,1.588 0.17,2.238l-3.451,0c-0.095,-0.421 -0.142,-0.985 -0.142,-1.693c-0.886,1.396 -2.254,2.095 -4.102,2.095c-1.433,0 -2.589,-0.421 -3.466,-1.263c-0.877,-0.841 -1.315,-1.836 -1.315,-2.984Zm5.573,1.406c0.887,0 1.617,-0.253 2.193,-0.76c0.575,-0.507 0.862,-1.344 0.862,-2.511l0,-0.631l-3.14,0.488c-1.15,0.172 -1.725,0.765 -1.725,1.779c0,0.459 0.16,0.846 0.48,1.162c0.321,0.315 0.764,0.473 1.33,0.473Zm9.477,3.214l3.395,-0.919c0.132,0.785 0.491,1.426 1.075,1.923c0.585,0.497 1.311,0.746 2.179,0.746c2.47,0 3.706,-1.31 3.706,-3.931l0,-1.033c-0.321,0.517 -0.811,0.947 -1.471,1.291c-0.661,0.345 -1.462,0.517 -2.405,0.517c-1.848,0 -3.39,-0.651 -4.626,-1.951c-1.235,-1.301 -1.853,-2.937 -1.853,-4.907c0,-1.913 0.613,-3.539 1.839,-4.878c1.226,-1.339 2.773,-2.008 4.64,-2.008c1.018,0 1.867,0.186 2.546,0.559c0.679,0.373 1.15,0.828 1.414,1.363l0,-1.664l3.622,0l0,12.596c0,2.124 -0.604,3.888 -1.811,5.294c-1.207,1.406 -3.036,2.109 -5.488,2.109c-1.83,0 -3.362,-0.497 -4.597,-1.492c-1.236,-0.995 -1.957,-2.2 -2.165,-3.615Zm7.13,-4.677c0.961,0 1.749,-0.325 2.362,-0.976c0.613,-0.65 0.919,-1.521 0.919,-2.611c0,-1.071 -0.316,-1.932 -0.948,-2.582c-0.631,-0.651 -1.409,-0.976 -2.333,-0.976c-0.962,0 -1.759,0.325 -2.391,0.976c-0.632,0.65 -0.948,1.511 -0.948,2.582c0,1.09 0.311,1.961 0.934,2.611c0.622,0.651 1.424,0.976 2.405,0.976Zm13.494,-4.763l6.224,0c-0.038,-0.785 -0.316,-1.444 -0.835,-1.98c-0.518,-0.536 -1.277,-0.803 -2.277,-0.803c-0.905,0 -1.641,0.286 -2.207,0.86c-0.566,0.574 -0.867,1.215 -0.905,1.923Zm6.592,3.672l3.14,0.947c-0.377,1.301 -1.118,2.372 -2.221,3.214c-1.103,0.842 -2.475,1.262 -4.116,1.262c-1.999,0 -3.697,-0.683 -5.092,-2.051c-1.396,-1.368 -2.094,-3.199 -2.094,-5.495c0,-2.181 0.679,-3.964 2.037,-5.351c1.358,-1.387 2.961,-2.08 4.809,-2.08c2.15,0 3.834,0.65 5.05,1.951c1.217,1.301 1.825,3.089 1.825,5.365c0,0.153 -0.005,0.326 -0.014,0.517c-0.01,0.191 -0.014,0.344 -0.014,0.459l-0.029,0.201l-9.958,0c0.038,0.918 0.396,1.683 1.075,2.295c0.679,0.612 1.49,0.918 2.433,0.918c1.603,0 2.659,-0.717 3.169,-2.152Zm12.561,-6.025c-1,0 -1.839,0.354 -2.518,1.062c-0.679,0.707 -1.019,1.673 -1.019,2.898c0,1.224 0.344,2.195 1.033,2.912c0.688,0.717 1.532,1.076 2.532,1.076c0.886,0 1.593,-0.235 2.122,-0.703c0.528,-0.469 0.886,-1.028 1.075,-1.679l3.31,1.119c-0.34,1.301 -1.075,2.42 -2.207,3.357c-1.132,0.938 -2.565,1.406 -4.3,1.406c-2.075,0 -3.815,-0.712 -5.22,-2.137c-1.405,-1.425 -2.107,-3.209 -2.107,-5.351c0,-2.162 0.693,-3.951 2.079,-5.366c1.386,-1.416 3.098,-2.123 5.135,-2.123c1.773,0 3.225,0.464 4.356,1.391c1.132,0.928 1.858,2.052 2.179,3.372l-3.367,1.147c-0.452,-1.587 -1.48,-2.381 -3.083,-2.381Zm13.07,2.726l0,8.292l-3.763,0l0,-20.774l3.763,0l0,7.833c0.848,-1.032 2.103,-1.549 3.762,-1.549c1.698,0 2.985,0.521 3.862,1.564c0.877,1.042 1.315,2.386 1.315,4.031l0,8.895l-3.762,0l0,-8.235c0,-0.842 -0.212,-1.521 -0.637,-2.037c-0.424,-0.517 -1.07,-0.775 -1.938,-0.775c-0.773,0 -1.391,0.258 -1.853,0.775c-0.462,0.516 -0.712,1.176 -0.749,1.98Zm11.91,4.447c0,-1.205 0.386,-2.171 1.16,-2.898c0.773,-0.727 1.773,-1.186 2.999,-1.377l3.423,-0.517c0.697,-0.095 1.046,-0.43 1.046,-1.004c0,-0.535 -0.202,-0.975 -0.608,-1.32c-0.405,-0.344 -0.985,-0.516 -1.74,-0.516c-0.792,0 -1.419,0.22 -1.881,0.66c-0.462,0.44 -0.721,0.985 -0.778,1.635l-3.338,-0.717c0.132,-1.224 0.726,-2.305 1.782,-3.242c1.056,-0.938 2.452,-1.406 4.187,-1.406c2.075,0 3.602,0.502 4.583,1.506c0.981,1.004 1.471,2.291 1.471,3.859l0,6.944c0,0.842 0.057,1.588 0.17,2.238l-3.452,0c-0.094,-0.421 -0.141,-0.985 -0.141,-1.693c-0.886,1.396 -2.254,2.095 -4.102,2.095c-1.433,0 -2.589,-0.421 -3.466,-1.263c-0.877,-0.841 -1.315,-1.836 -1.315,-2.984Zm5.573,1.406c0.886,0 1.617,-0.253 2.193,-0.76c0.575,-0.507 0.862,-1.344 0.862,-2.511l0,-0.631l-3.14,0.488c-1.15,0.172 -1.726,0.765 -1.726,1.779c0,0.459 0.161,0.846 0.481,1.162c0.321,0.315 0.764,0.473 1.33,0.473Zm19.011,-11.735l0,3.845c-0.377,-0.077 -0.754,-0.115 -1.132,-0.115c-1.075,0 -1.942,0.311 -2.602,0.932c-0.66,0.622 -0.99,1.641 -0.99,3.056l0,6.456l-3.763,0l0,-14.117l3.649,0l0,2.095c0.679,-1.473 2,-2.21 3.961,-2.21c0.208,0 0.5,0.019 0.877,0.058Zm7.837,-4.161l0,4.218l2.8,0l0,3.386l-2.8,0l0,5.911c0,0.593 0.132,1.013 0.396,1.262c0.264,0.249 0.679,0.373 1.244,0.373c0.51,0 0.896,-0.038 1.16,-0.115l0,3.156c-0.547,0.23 -1.254,0.345 -2.122,0.345c-1.357,0 -2.432,-0.388 -3.225,-1.162c-0.792,-0.775 -1.188,-1.841 -1.188,-3.2l0,-6.57l-2.518,0l0,-3.386l0.708,0c0.697,0 1.23,-0.206 1.598,-0.617c0.368,-0.411 0.552,-0.951 0.552,-1.621l0,-1.98l3.395,0Zm5.12,14.404l3.225,-0.717c0.038,0.612 0.278,1.124 0.722,1.535c0.443,0.411 1.051,0.617 1.824,0.617c0.585,0 1.038,-0.134 1.358,-0.402c0.321,-0.268 0.481,-0.603 0.481,-1.004c0,-0.708 -0.5,-1.167 -1.499,-1.378l-1.839,-0.43c-1.301,-0.287 -2.277,-0.803 -2.928,-1.549c-0.651,-0.746 -0.976,-1.636 -0.976,-2.669c0,-1.281 0.495,-2.372 1.485,-3.271c0.99,-0.899 2.23,-1.348 3.72,-1.348c0.943,0 1.773,0.138 2.49,0.416c0.716,0.277 1.273,0.631 1.669,1.061c0.396,0.431 0.698,0.866 0.905,1.306c0.208,0.44 0.34,0.87 0.396,1.291l-3.14,0.717c-0.075,-0.497 -0.297,-0.937 -0.665,-1.319c-0.368,-0.383 -0.91,-0.574 -1.626,-0.574c-0.491,0 -0.91,0.134 -1.259,0.401c-0.349,0.268 -0.524,0.603 -0.524,1.005c0,0.688 0.425,1.109 1.273,1.262l1.981,0.43c1.339,0.287 2.362,0.813 3.069,1.579c0.707,0.765 1.061,1.683 1.061,2.754c0,1.263 -0.472,2.353 -1.415,3.271c-0.943,0.918 -2.272,1.377 -3.988,1.377c-0.981,0 -1.858,-0.148 -2.631,-0.444c-0.774,-0.297 -1.373,-0.679 -1.797,-1.148c-0.424,-0.469 -0.745,-0.937 -0.962,-1.406c-0.217,-0.469 -0.353,-0.923 -0.41,-1.363Z" style="fill:#fff;"/><g id="Shape"><path id="Combined-Shape" d="M4,0l30,0c2.209,0 4,1.791 4,4l0,30c0,2.209 -1.791,4 -4,4l-30,0c-2.209,0 -4,-1.791 -4,-4l0,-30c0,-2.209 1.791,-4 4,-4Zm0,4l0,26l30,0l0,-26l-30,0Z" style="fill:#fff;"/><g id="_1"><path id="Background" d="M13,11c0,-1.104 -0.896,-2 -2,-2c-1.104,0 -2,0.896 -2,2l0,12c0,1.104 0.896,2 2,2c1.104,0 2,-0.896 2,-2l0,-12Z" style="fill:#fff;"/></g><g id="_2"><path id="Background1" d="M21,11c0,-1.104 -0.896,-2 -2,-2c-1.104,0 -2,0.896 -2,2l0,12c0,1.104 0.896,2 2,2c1.104,0 2,-0.896 2,-2l0,-12Z" style="fill:#fff;"/></g><path id="_3" d="M29,11c0,-1.104 -0.896,-2 -2,-2c-1.104,0 -2,0.896 -2,2l0,12c0,1.104 0.896,2 2,2c1.104,0 2,-0.896 2,-2l0,-12Z" style="fill:#fff;"/></g></g></svg>